<svg xmlns="http://www.w3.org/2000/svg" viewBox="0 0 720 720"><defs><style>.cls-1{fill:#fff;}.cls-2{fill:#61116a;}.cls-3{fill:#98002e;}</style></defs><title>Recurso 5</title><g id="Capa_2" data-name="Capa 2"><g id="Capa_1-2" data-name="Capa 1"><rect class="cls-1" width="720" height="720" rx="100"/><g id="Logo"><path class="cls-2" d="M677.22,164.15c10.57,28.2,9.61,67,1.68,98.53-7.61,30.05-20.27,56.24-33.65,79.55-55.52,96.62-142.68,161.83-229.44,224.4-5.77-7.21-9.29-15.46-14.34-24.84-2-3.68-4.64-7.93-7.13-12.66-2-3.6-6.17-9.53-6.33-13-.24-4.57,6.41-14.26,9.3-19.39C447.46,405.92,498.25,310,548.4,221a335,335,0,0,1,38.29,0c2.4,8.57,3.12,17.94,4.25,27.39,2,18.67,3.76,38.14,5.84,57.28,1,9.38.32,19,4.25,26.92,9.85-2.16,16.1-11.62,21.87-19.39A181.86,181.86,0,0,0,658.71,223c5.93-54.24-24.11-88.45-68.17-97.26-26.28-5.28-52.88-1.68-75.39,3.77-46,11.29-81.31,28.68-117.44,50.23-13.14,7.77-25.88,15.46-38.7,24.43-4,2.81-9,7.77-12.65,8s-8.66-2.88-13.06-4.64a126.1,126.1,0,0,0-44.22-8.42c-23.56-.32-42,6.09-59.37,10.1,2.57-6,9-8.89,13.86-12.66a618.72,618.72,0,0,1,116.16-68.65c48.87-22,101.91-39.82,168.4-42.94,74.74-3.45,128.9,26,149.09,79.15"/><path class="cls-2" d="M622,565.35c1.44,15.78,4.25,31.72,3,45.9-3.68,2-10.33,1.28-17.7,1.28-6.17,0-14.42.88-17.71-1.28-2.4-1.52-5.6-9.45-7.61-13.46-14.26-28.36-26.83-54.08-41.65-82.11-2.49-4.49-6.73-11.14-6.33-14.34.56-4.25,7-5.69,8.81-8.82,21.87-19.22,41.82-40.37,61.44-61.84,4.89-4.25,5,4.32,5.45,8,4.33,42.46,8.49,84.52,12.34,126.66"/><path class="cls-3" d="M412.45,597.39c2,3.52,4.8,7.45,4.64,11.78-3.12,4.4-11.61,3-18.1,3-7.05,0-15,1-20.59-.4-3.61-.88-9-5.93-13.06-9.29q-66.57-54.56-133.46-108.23c-16.51-13.14-33.25-25.4-48.39-39.58a145.35,145.35,0,0,1,0-25.72c35.81-9.53,63.93-25.87,88-48.38a167.28,167.28,0,0,0,30.28-37.9c8.17-14,17.15-30.84,15.54-52.63-2.32-31.48-27.07-47.18-60.64-47.18-26,0-44.78,9.13-64,16.82-5.93,2.4-12.9,7.45-20.19,4.24,1.61-4.24,6-7,9.7-9.69,24.43-17.78,57.68-36,96.85-38.29,64.09-3.77,100.62,36.37,106.47,91.81,6.89,65.21-25.24,108.71-65.21,130.9,30.28,53.51,61.12,105.75,92.21,158.78"/><path class="cls-2" d="M324.81,595.71c3.92,3.2,7.69,5.85,10.09,9.69-26.6,11.54-55.2,19.39-86.76,24.84-32.13,5.52-68.66,7.29-101.9,1.28C85.83,620.54,41.13,585.37,35.6,519c-2.88-34.29,5-67.45,15.54-94.29C62,397.43,75.9,374.44,91.6,353.61c31.56-42,69.78-79.95,135.55-87.56,19.07-2.17,36.13,2.08,47.59,11,2.56,1.93,9.29,6.81,8.81,10.1-.4,3-10.5,7.53-13.86,9.69a642,642,0,0,0-91.33,72c-23.63,23.31-45.74,47.19-63.53,76.59C98.49,472.34,80.3,517.2,98,553.17c22.27,45.5,90.53,56.16,157,46.3a435.5,435.5,0,0,0,44.22-8.41c4.81-1.2,10.25-3.68,13.86-3.36,3.84.4,8.57,5.36,11.7,8"/></g></g></g></svg>